<svg width="53" height="60" viewBox="0 0 53 60" fill="none" xmlns="http://www.w3.org/2000/svg">
<path d="M48.8463 12.248L29.9071 1.00393C28.7777 0.336317 27.5128 0 26.2528 0C24.9929 0 23.7279 0.336317 22.5985 1.00895L3.65431 12.253C1.39547 13.5932 0 16.073 0 18.7585V41.2466C0 43.9321 1.39045 46.4118 3.65431 47.752L22.5935 58.9961C23.7229 59.6687 24.9829 60 26.2478 60C27.5077 60 28.7727 59.6637 29.9021 58.9961L48.8463 47.752C51.1052 46.4118 52.5006 43.9271 52.5006 41.2466V18.7535C52.5006 16.073 51.1102 13.5882 48.8463 12.248ZM34.1789 47.3605L34.209 48.9768C34.209 49.1726 34.0835 49.3935 33.9329 49.4738L32.9742 50.0259C32.8236 50.1012 32.6931 50.0109 32.6931 49.8151L32.678 48.2239C31.8598 48.5652 31.0265 48.6455 30.4995 48.4347C30.3991 48.3946 30.3539 48.249 30.394 48.0783L30.7404 46.6176C30.7705 46.5021 30.8308 46.3867 30.9111 46.3164C30.9412 46.2863 30.9713 46.2662 31.0014 46.2512C31.0566 46.221 31.1119 46.216 31.157 46.2361C31.7293 46.4268 32.4571 46.3365 33.1599 45.9851C34.0534 45.5333 34.6507 44.6198 34.6407 43.7162C34.6306 42.893 34.1889 42.5567 33.1097 42.5466C31.7343 42.5517 30.4493 42.2806 30.4292 40.2527C30.4141 38.5861 31.2775 36.8493 32.6529 35.755L32.6378 34.1237C32.6378 33.9229 32.7583 33.702 32.9139 33.6217L33.8426 33.0294C33.9931 32.9541 34.1237 33.0494 34.1237 33.2452L34.1387 34.8766C34.8214 34.6055 35.4137 34.5302 35.9508 34.6557C36.0663 34.6859 36.1215 34.8465 36.0713 35.0322L35.7099 36.4779C35.6797 36.5883 35.6195 36.6987 35.5442 36.769C35.5162 36.7972 35.4841 36.8209 35.4488 36.8393C35.3986 36.8644 35.3535 36.8694 35.3083 36.8644C35.0623 36.8092 34.48 36.6837 33.5615 37.1455C32.5977 37.6324 32.2614 38.4707 32.2664 39.0931C32.2764 39.836 32.6529 40.0619 33.968 40.082C35.7199 40.1121 36.4729 40.8751 36.4929 42.637C36.518 44.3638 35.5944 46.2261 34.1789 47.3605ZM47.4007 16.9916L29.4805 28.0599C27.2467 29.365 25.6003 30.8308 25.5952 33.5263V55.6078C25.5952 57.2191 26.2478 58.2632 27.2467 58.5694C26.9204 58.6246 26.5841 58.6648 26.2528 58.6648C25.2037 58.6648 24.1697 58.3787 23.2611 57.8415L4.32193 46.5975C2.46967 45.4982 1.32017 43.4452 1.32017 41.2415V18.7535C1.32017 16.5498 2.46967 14.4968 4.32193 13.3975L23.2661 2.15343C24.1747 1.61633 25.2087 1.33021 26.2578 1.33021C27.307 1.33021 28.341 1.61633 29.2496 2.15343L48.1938 13.3975C49.7549 14.3261 50.809 15.9274 51.1052 17.7294C50.4677 16.3892 49.0521 16.0278 47.4007 16.9916Z" fill="#293138"/>
</svg>
