<svg width="60" height="60" viewBox="0 0 60 60" fill="none" xmlns="http://www.w3.org/2000/svg">
<path d="M0 50.21C0.1075 51.535 0.575 52.8675 1.795 54.655C3.245 56.7775 5.735 57.9425 7.5525 56.0725C8.7775 54.81 22.0375 31.6325 28.4275 22.8475C28.6028 22.5963 28.8362 22.3912 29.1078 22.2496C29.3794 22.1079 29.6812 22.034 29.9875 22.034C30.2938 22.034 30.5956 22.1079 30.8672 22.2496C31.1388 22.3912 31.3722 22.5963 31.5475 22.8475C37.9375 31.6325 51.1975 54.81 52.4225 56.0725C54.24 57.9425 56.73 56.7775 58.18 54.655C59.605 52.5675 60 51.105 60 49.54C60 48.475 39.35 10.045 37.27 6.84499C35.27 3.76999 34.66 3.09999 31.2775 2.98999H28.6975C25.315 3.09999 24.705 3.76749 22.7025 6.84499C20.6675 9.97749 0.825 46.895 0 49.425V50.21Z" fill="black"/>
</svg>
