<svg width="60" height="60" viewBox="0 0 60 60" fill="none" xmlns="http://www.w3.org/2000/svg">
<path d="M43.9729 43.1774C44.3409 40.1151 44.2307 39.6656 46.5117 40.162L47.0906 40.2126C48.8446 40.2923 51.1392 39.9304 52.4873 39.3042C55.3893 37.9574 57.1096 35.7098 54.2489 36.2999C47.722 37.6467 47.2734 35.4365 47.2734 35.4365C54.1654 25.2107 57.0464 12.2296 54.5592 9.05197C47.7764 0.385255 36.0356 4.48354 35.8392 4.58947L35.7764 4.60119C34.4868 4.33354 33.0435 4.17369 31.4221 4.14744C28.4685 4.09869 26.2274 4.92182 24.5273 6.21088C24.5273 6.21088 3.58213 -2.41834 4.55666 17.0629C4.76385 21.2071 10.4967 48.4213 17.3348 40.2014C19.8342 37.1957 22.2492 34.6542 22.2492 34.6542C23.4482 35.4506 24.8845 35.8574 26.3901 35.7112L26.5068 35.6118C26.4703 35.9849 26.4862 36.3501 26.5532 36.7823C24.7921 38.7506 25.3096 39.096 21.7879 39.8207C18.2245 40.5548 20.3179 41.8621 21.6843 42.2038C23.3414 42.6182 27.1743 43.2051 29.7646 39.5798L29.6615 39.9932C30.3524 40.5463 30.306 43.9668 30.4035 46.4104C30.5015 48.8545 30.6651 51.1349 31.1634 52.4798C31.6617 53.8242 32.2495 57.2873 36.8779 56.2954C40.746 55.4685 43.7034 54.2756 43.9729 43.1774Z" fill="black"/>
<path d="M35.3708 58.7137C33.3238 58.7137 31.9907 57.922 31.1812 57.1575C29.9591 56.0044 29.4744 54.5189 29.1847 53.6315L29.0596 53.2612C28.4765 51.6872 28.2787 49.4208 28.1615 46.5023C28.1437 46.064 28.1315 45.6126 28.1179 45.134C28.108 44.7839 28.0958 44.3447 28.078 43.8853C27.3405 44.2369 26.5577 44.4843 25.7521 44.6203C24.3088 44.8669 22.7572 44.7872 21.1396 44.3826C19.9982 44.0972 18.8122 43.5056 18.1363 42.592C16.1662 44.3175 14.2869 44.0836 13.2632 43.7419C11.4571 43.1395 9.84084 41.4469 8.32162 38.5683C7.23928 36.5175 6.19256 33.8456 5.21006 30.6262C3.49912 25.02 2.41209 19.1151 2.31553 17.1764C2.01178 11.1084 3.64537 6.76872 7.1699 4.27919C12.7297 0.352004 21.1537 2.66154 24.2249 3.71013C26.2883 2.46654 28.716 1.86138 31.4591 1.90497C32.9324 1.92888 34.3354 2.05825 35.6385 2.29075C36.9979 1.86325 39.6829 1.24966 42.7565 1.2881C48.4194 1.3556 53.1121 3.56247 56.3263 7.67013C58.6204 10.6008 57.486 16.755 56.6062 20.1628C55.3677 24.9562 53.1979 30.0544 50.5326 34.4925C51.2563 34.4976 52.3049 34.4109 53.7955 34.1029C56.7365 33.4959 57.5966 35.0728 57.8301 35.7787C58.7652 38.6109 54.7002 40.7512 53.4322 41.34C51.8076 42.0942 49.1587 42.5536 46.9893 42.4542L46.8946 42.4481L46.3246 42.3979L46.2683 42.8733L46.214 43.3378C46.0682 48.9623 45.2647 52.5244 43.6115 54.8779C41.8785 57.3454 39.4701 58.0369 37.3485 58.4915C36.6247 58.6462 35.9671 58.7137 35.3708 58.7137ZM31.063 38.2429C32.3844 39.3004 32.5002 41.2903 32.6038 45.0089C32.6169 45.4729 32.6291 45.9122 32.6455 46.3223C32.6952 47.5645 32.8119 50.4731 33.2676 51.7022C33.3318 51.8761 33.3894 52.0523 33.4504 52.2394C33.958 53.7937 34.2126 54.5733 36.4077 54.104C38.2504 53.7089 39.1977 53.3545 39.9393 52.2989C41.0169 50.7642 41.6197 47.677 41.7304 43.1231L43.9724 43.1775L41.7458 42.9103L41.8115 42.3544C42.0247 40.5215 42.1785 39.1978 43.4033 38.3222C44.3863 37.62 45.5062 37.6879 46.3982 37.8487C45.418 37.1081 45.1471 36.2395 45.0749 35.8833L44.8879 34.9622L45.4133 34.1826C48.4401 29.692 50.9357 24.1729 52.2613 19.0401C53.6235 13.7662 53.2082 10.9654 52.7929 10.4358C47.2949 3.4106 37.761 6.31122 36.7654 6.64029L36.5971 6.73122L35.7533 6.88825L35.3212 6.79872C34.1296 6.55122 32.8058 6.41435 31.3869 6.39138C29.1576 6.35388 27.359 6.88075 25.8843 7.99966L24.861 8.77544L23.6737 8.28654C21.1368 7.24919 13.6855 5.16372 9.75365 7.94857C7.57115 9.49451 6.57693 12.5236 6.79818 16.9518C6.87131 18.4139 7.86459 23.9484 9.50334 29.3161C11.7679 36.734 13.8257 39.1983 14.6849 39.4847C14.8349 39.5353 15.224 39.2329 15.6112 38.7679C17.2255 36.8326 18.8972 34.9459 20.624 33.1101L21.9224 31.7437L23.4922 32.7867C24.1251 33.2072 24.823 33.4458 25.5397 33.4908L29.2837 30.2976L28.7413 35.8326C28.7291 35.9569 28.723 36.1261 28.7718 36.4401L28.9349 37.4892L28.2271 38.2804L28.1455 38.3723L30.2024 39.3215L31.063 38.2429Z" fill="black"/>
<path d="M54.249 36.3C47.7217 37.6467 47.2731 35.4365 47.2731 35.4365C54.1651 25.2103 57.046 12.2287 54.5598 9.05199C47.777 0.385736 36.0353 4.48402 35.8393 4.59042L35.776 4.60167C34.4865 4.33402 33.0432 4.17464 31.4209 4.14839C28.4673 4.10011 26.2271 4.92277 24.527 6.21183C24.527 6.21183 3.58135 -2.41692 4.55541 17.0639C4.7626 21.2085 10.4954 48.4228 17.3335 40.2028C19.8329 37.1971 22.2474 34.6556 22.2474 34.6556C23.447 35.452 24.8828 35.8589 26.3879 35.7126L26.5051 35.6132C26.4685 35.9864 26.4854 36.3515 26.552 36.7837C24.7904 38.752 25.3079 39.0975 21.7862 39.8221C18.2228 40.5562 20.3162 41.8636 21.6831 42.2053C23.3396 42.6196 27.1731 43.2065 29.7629 39.5812L29.6593 39.9946C30.3498 40.5478 30.8345 43.5909 30.7534 46.3495C30.6718 49.1081 30.6174 51.0023 31.1617 52.4817C31.7054 53.961 32.2473 57.2892 36.8767 56.2973C40.7448 55.4685 42.7492 53.3203 43.0285 49.7371C43.2263 47.1895 43.674 47.5664 43.7026 45.2887L44.0621 44.2106C44.4765 40.7573 44.1278 39.6436 46.5113 40.1615L47.0903 40.2121C48.8443 40.2918 51.1398 39.93 52.4874 39.3037C55.389 37.9579 57.1098 35.7098 54.249 36.3Z" fill="#336791"/>
<path d="M35.6049 57.3314C31.7461 57.3314 30.5236 54.2756 30.0235 53.0259C29.2913 51.1945 29.1333 44.0873 29.2964 38.2589C29.2988 38.1606 29.3207 38.0637 29.3607 37.9739C29.4007 37.8841 29.4581 37.8031 29.5296 37.7356C29.601 37.668 29.6851 37.6153 29.7771 37.5804C29.869 37.5455 29.9669 37.5292 30.0652 37.5323C30.1633 37.535 30.26 37.557 30.3497 37.5971C30.4394 37.6371 30.5202 37.6945 30.5877 37.7658C30.6552 37.8372 30.708 37.9211 30.743 38.0129C30.778 38.1047 30.7945 38.2024 30.7917 38.3006C30.6038 45.0229 30.8705 51.1148 31.4124 52.4704C32.258 54.584 33.5405 56.4328 37.1663 55.6561C40.6083 54.9178 41.8974 53.6128 42.4716 50.2842C42.9122 47.73 43.7836 40.4634 43.891 39.0295C43.8981 38.9315 43.9246 38.8359 43.9688 38.7481C44.013 38.6604 44.0741 38.5822 44.1485 38.5181C44.223 38.454 44.3094 38.4053 44.4027 38.3746C44.4961 38.344 44.5945 38.332 44.6925 38.3395C44.8902 38.3545 45.0739 38.4473 45.2033 38.5976C45.3327 38.7479 45.3971 38.9433 45.3825 39.1411C45.2705 40.634 44.4033 47.8865 43.9458 50.5387C43.268 54.4701 41.5153 56.2533 37.4799 57.1186C36.7941 57.2653 36.1711 57.3309 35.6049 57.3314ZM14.6817 42.4059C14.3444 42.4048 14.0095 42.3494 13.6899 42.2418C11.1835 41.4056 8.79611 37.3237 6.59392 30.1083C4.91767 24.6159 3.85548 18.8831 3.7622 17.0198C3.48611 11.4961 4.90829 7.58809 7.99032 5.40513C14.0874 1.08513 24.3441 5.19888 24.7777 5.37606C24.9614 5.45109 25.1077 5.59601 25.1845 5.77895C25.2614 5.96188 25.2624 6.16785 25.1874 6.35153C25.1123 6.53521 24.9674 6.68157 24.7845 6.7584C24.6015 6.83523 24.3956 6.83625 24.2119 6.76122C24.113 6.72091 14.2777 2.78059 8.85189 6.62763C6.21658 8.49606 5.00673 11.9676 5.25564 16.9453C5.33392 18.5151 6.32626 24.1101 8.02408 29.6714C9.99001 36.1129 12.2274 40.1775 14.1628 40.8229C14.4666 40.9242 15.391 41.2322 16.7124 39.6431C18.2533 37.7924 19.8521 35.9906 21.5063 34.2403C21.6447 34.1022 21.8316 34.0238 22.0271 34.0219C22.2226 34.0199 22.4111 34.0946 22.5522 34.2298C22.6934 34.3651 22.776 34.5502 22.7823 34.7456C22.7887 34.941 22.7183 35.1311 22.5863 35.2753C22.5638 35.2987 20.3142 37.6504 17.8627 40.5998C16.7016 41.9962 15.5888 42.4059 14.6817 42.4059ZM47.2266 36.1036C47.091 36.1034 46.958 36.0664 46.8418 35.9964C46.7256 35.9265 46.6306 35.8263 46.567 35.7066C46.5033 35.5869 46.4734 35.4521 46.4805 35.3167C46.4875 35.1812 46.5312 35.0503 46.6069 34.9378C53.5739 24.5995 56.0194 12.1078 53.925 9.43122C51.2888 6.06278 47.5664 4.30356 42.8606 4.20184C39.3764 4.12684 36.607 5.01653 36.1542 5.17169L36.0403 5.21809C35.5852 5.36106 35.236 5.11169 35.1042 4.82013C35.0291 4.65308 35.0177 4.46432 35.0722 4.28946C35.1267 4.1146 35.2433 3.96572 35.4 3.87091C35.4216 3.85825 35.49 3.82919 35.6011 3.78841C36.3703 3.50669 39.1819 2.66294 42.6642 2.70278C47.8711 2.75809 52.1724 4.76575 55.102 8.50966C56.4881 10.2811 56.4914 14.362 55.111 19.7067C53.7038 25.1559 51.0558 31.012 47.8467 35.774C47.7033 35.9883 47.467 36.1036 47.2266 36.1036ZM47.5828 40.8895C46.3931 40.8895 45.3267 40.7217 44.6883 40.3392C44.032 39.9459 43.9069 39.4115 43.8905 39.1279C43.7114 35.9826 45.4467 35.4351 46.3317 35.1853C46.2085 34.9987 46.0331 34.7793 45.8517 34.5529C45.3356 33.9079 44.6288 33.0248 44.0841 31.7039C43.9988 31.4976 43.7316 31.0181 43.4222 30.4626C41.7445 27.4542 38.2538 21.194 40.4963 17.9883C41.5341 16.5047 43.6008 15.9206 46.6458 16.2464C45.75 13.5173 41.4844 4.98044 31.3627 4.8145C28.3186 4.76388 25.822 5.69997 23.9461 7.59419C19.7461 11.8359 19.898 19.5107 19.9003 19.5876C19.9029 19.6858 19.8861 19.7835 19.8509 19.8752C19.8158 19.9669 19.7629 20.0508 19.6953 20.1221C19.6277 20.1933 19.5467 20.2506 19.457 20.2905C19.3673 20.3305 19.2705 20.3524 19.1724 20.355C19.0742 20.3576 18.9764 20.3408 18.8847 20.3056C18.793 20.2704 18.7092 20.2175 18.6379 20.1499C18.5667 20.0823 18.5094 20.0013 18.4695 19.9116C18.4295 19.8219 18.4076 19.7252 18.405 19.627C18.3956 19.2862 18.2391 11.2322 22.8834 6.54138C25.057 4.34622 27.9183 3.26247 31.3875 3.31919C37.8628 3.42559 42.031 6.71763 44.3869 9.46028C46.9552 12.4495 48.2142 15.7467 48.3178 16.8473C48.3952 17.6658 47.8078 17.8293 47.6892 17.8537L47.4192 17.8598C44.431 17.3812 42.5138 17.7136 41.7211 18.8461C40.0153 21.284 43.3177 27.2057 44.7277 29.7347C45.0877 30.3797 45.3474 30.8461 45.4664 31.1339C45.9295 32.257 46.5338 33.0117 47.0189 33.6183C47.4459 34.1517 47.8158 34.6143 47.948 35.1572C48.0094 35.265 48.8808 36.554 54.0516 35.4867C55.3477 35.2195 56.1249 35.4478 56.3625 36.1664C56.8299 37.5797 54.2077 39.2283 52.756 39.9023C51.4552 40.507 49.3791 40.8895 47.5828 40.8895ZM45.3816 39.0047C45.5456 39.1701 46.3664 39.4556 48.0661 39.3825C49.5774 39.3178 51.1711 38.9892 52.1274 38.5453C53.3503 37.9772 54.1669 37.342 54.5897 36.9084L54.3553 36.9515C51.0492 37.634 48.7106 37.5431 47.4047 36.6811C47.317 36.6231 47.2325 36.5603 47.1516 36.4931C47.01 36.5489 46.8792 36.5854 46.7859 36.6117C46.0453 36.8193 45.2794 37.0345 45.3816 39.0047ZM24.0244 43.1836C23.2031 43.1836 22.3388 43.0715 21.4561 42.8508C20.5416 42.622 18.9999 41.9334 19.0233 40.8023C19.05 39.5334 20.8955 39.1528 21.5902 39.0098C24.0999 38.4928 24.2635 38.2856 25.0477 37.2895C25.2764 36.9993 25.561 36.6379 25.9491 36.2048C26.5252 35.5598 27.1547 35.2331 27.8203 35.2331C28.2839 35.2331 28.6641 35.3901 28.9153 35.4947C29.716 35.8265 30.3839 36.629 30.6586 37.5886C30.9066 38.4543 30.788 39.2878 30.3258 39.9351C28.8085 42.06 26.6292 43.1836 24.0244 43.1836ZM20.6391 40.8665C20.8645 41.0409 21.3164 41.2739 21.8194 41.3995C22.5839 41.5908 23.3255 41.6878 24.0249 41.6878C26.1558 41.6878 27.8667 40.8056 29.1094 39.0656C29.3686 38.7028 29.2908 38.242 29.2214 37.9997C29.0761 37.492 28.7152 37.0303 28.3435 36.8761C28.1419 36.7926 27.9745 36.7289 27.8208 36.7289C27.7383 36.7289 27.487 36.7289 27.0642 37.2018C26.7725 37.53 26.492 37.868 26.2233 38.2153C25.2464 39.4556 24.7988 39.8765 21.8925 40.4751C21.1833 40.6204 20.8195 40.7686 20.6391 40.8665ZM26.3902 37.4165C26.2116 37.4162 26.0391 37.3521 25.9037 37.2357C25.7683 37.1193 25.679 36.9583 25.6519 36.7818C25.6333 36.6577 25.6208 36.5327 25.6144 36.4073C23.7094 36.3717 21.8714 35.5542 20.476 34.0983C18.7116 32.2575 17.9086 29.707 18.2733 27.1012C18.6694 24.2714 18.5213 21.7734 18.4416 20.4314C18.4195 20.0583 18.4036 19.7887 18.4045 19.6022C18.406 19.3654 18.4106 18.7378 20.5088 17.6742C21.255 17.2959 22.7513 16.6359 24.3858 16.4667C27.0938 16.1868 28.8788 17.3929 29.4131 19.8633C30.8555 26.5326 29.5275 29.4825 28.5577 31.6368C28.3772 32.0381 28.2066 32.4168 28.0702 32.7839L27.9497 33.1073C27.4374 34.4812 26.9944 35.6681 27.1303 36.5545C27.1453 36.6516 27.1409 36.7507 27.1175 36.8461C27.0942 36.9414 27.0522 37.0313 26.9941 37.1105C26.936 37.1897 26.8628 37.2566 26.7788 37.3075C26.6948 37.3584 26.6016 37.3923 26.5045 37.4072L26.3902 37.4165ZM19.905 19.8093L19.9341 20.3433C20.0166 21.7373 20.1703 24.3314 19.7541 27.3089C19.4536 29.4581 20.1099 31.5558 21.5555 33.0633C22.6978 34.2548 24.2011 34.9125 25.7461 34.9125H25.778C25.951 34.1836 26.2383 33.4139 26.5477 32.5847L26.6672 32.2631C26.8214 31.8487 27.0019 31.4475 27.1931 31.0228C28.1264 28.949 29.2885 26.3676 27.9502 20.1797C27.6853 18.9539 27.0427 18.2447 25.9866 18.0108C23.8172 17.5317 20.5842 19.1634 19.905 19.8093ZM24.4191 19.492C24.3816 19.7564 24.9033 20.4623 25.5839 20.5565C26.2631 20.6517 26.8444 20.0995 26.8814 19.8351C26.9184 19.5707 26.3972 19.2792 25.7166 19.1845C25.0364 19.0898 24.4552 19.2276 24.4191 19.492ZM25.74 20.8167L25.5492 20.8036C25.1274 20.745 24.7008 20.4792 24.4088 20.092C24.3061 19.9561 24.1388 19.6926 24.172 19.4573C24.2194 19.1123 24.6403 18.9056 25.297 18.9056C25.4438 18.9056 25.5966 18.9164 25.7503 18.9379C26.1094 18.9876 26.4427 19.0912 26.6888 19.2286C27.1153 19.4667 27.1467 19.7325 27.1275 19.8698C27.075 20.2509 26.4689 20.8167 25.74 20.8167ZM24.667 19.5361C24.6881 19.6992 25.0922 20.2373 25.6181 20.31L25.7405 20.3184C26.2261 20.3184 26.5889 19.9364 26.6316 19.8112C26.5866 19.7259 26.2744 19.514 25.6824 19.4315C25.5549 19.4132 25.4263 19.404 25.2975 19.4039C24.9169 19.4039 24.7149 19.4897 24.667 19.5361ZM45.1069 18.9525C45.1439 19.2168 44.6227 19.9228 43.9425 20.0175C43.2628 20.1122 42.6811 19.5604 42.6436 19.2961C42.608 19.0317 43.1292 18.7397 43.8089 18.6454C44.4886 18.5503 45.0694 18.6886 45.1069 18.9525ZM43.7855 20.1525C43.1311 20.1525 42.5663 19.6434 42.5199 19.3129C42.466 18.9164 43.1189 18.615 43.7911 18.5217C43.9392 18.5011 44.0859 18.4908 44.227 18.4908C44.8074 18.4908 45.1917 18.6609 45.2302 18.9356C45.255 19.1133 45.1186 19.3875 44.8838 19.635C44.7286 19.7976 44.4028 20.0793 43.9589 20.1408L43.7855 20.1525ZM44.2275 18.7401C44.0981 18.7401 43.9631 18.75 43.8263 18.7687C43.1508 18.8629 42.7477 19.1339 42.7674 19.2792C42.7899 19.439 43.2211 19.9036 43.786 19.9036L43.9252 19.8937C44.2941 19.8426 44.5711 19.6017 44.7033 19.4629C44.9109 19.245 44.9935 19.0397 44.9836 18.9698C44.9705 18.877 44.7211 18.7401 44.2275 18.7401ZM46.0861 34.1353C45.9506 34.1354 45.8176 34.0986 45.7014 34.0289C45.5852 33.9592 45.4901 33.8592 45.4264 33.7397C45.3626 33.6201 45.3326 33.4854 45.3395 33.3501C45.3463 33.2148 45.3899 33.0839 45.4655 32.9714C47.0583 30.5925 46.7667 28.1667 46.485 25.8206C46.3645 24.8212 46.2408 23.7876 46.2727 22.7958C46.3055 21.7753 46.4353 20.9334 46.5605 20.1192C46.7091 19.1545 46.8497 18.2433 46.7916 17.1614C46.7863 17.0633 46.8004 16.9652 46.833 16.8726C46.8656 16.7799 46.9162 16.6946 46.9818 16.6216C47.0474 16.5485 47.1267 16.489 47.2153 16.4466C47.3039 16.4042 47.3999 16.3796 47.498 16.3743C47.596 16.3691 47.6942 16.3831 47.7868 16.4158C47.8794 16.4484 47.9647 16.499 48.0378 16.5645C48.1109 16.6301 48.1703 16.7095 48.2127 16.7981C48.2552 16.8866 48.2797 16.9827 48.285 17.0808C48.3516 18.3173 48.1927 19.3486 48.0389 20.3465C47.9203 21.1167 47.7975 21.9131 47.768 22.8436C47.7394 23.722 47.8514 24.6548 47.97 25.642C48.27 28.1367 48.6099 30.9642 46.7086 33.8034C46.6401 33.9057 46.5475 33.9894 46.4389 34.0473C46.3303 34.1052 46.2092 34.1354 46.0861 34.1353Z" fill="white"/>
</svg>
