<svg width="60" height="60" viewBox="0 0 60 60" fill="none" xmlns="http://www.w3.org/2000/svg">
<g clip-path="url(#clip0_84_50)">
<path d="M10.6265 22.0312H57.3468V56.5641H10.6265V22.0312Z" fill="white"/>
<path d="M30 9C20.6665 9 14.8352 13.6648 12.5 22.9984C15.9989 18.333 20.0835 16.5835 24.7489 17.75C27.4127 18.4139 29.3164 20.3455 31.4246 22.4859C34.8557 25.9679 38.8271 29.9989 47.5 29.9989C56.833 29.9989 62.6648 25.3335 65 15.9978C61.5005 20.6659 57.4165 22.4154 52.7505 21.2489C50.0873 20.5845 48.1858 18.6534 46.0748 16.513C42.6459 13.031 38.6756 9 30 9ZM12.5 29.9989C3.16703 29.9989 -2.66484 34.6643 -5 44C-1.50109 39.3319 2.58297 37.5824 7.24891 38.7489C9.91273 39.4134 11.8164 41.3444 13.9246 43.4848C17.3557 46.9668 21.3271 50.9978 30 50.9978C39.333 50.9978 45.1648 46.333 47.5 36.9995C44.0005 41.6648 39.9165 43.4143 35.2505 42.2478C32.5873 41.5839 30.6858 39.6523 28.5748 37.5119C25.1459 34.0299 21.1756 29.9989 12.5 29.9989Z" fill="#38BDF8"/>
</g>
<defs>
<clipPath id="clip0_84_50">
<rect width="60" height="60" fill="white"/>
</clipPath>
</defs>
</svg>
